HIERARCHY
ROOT Hips
{
  OFFSET 0 0 0
  CHANNELS 6 Xposition Yposition Zposition Zrotation Yrotation Xrotation
  JOINT LeftThigh
  {
    OFFSET 8.409438 0 -5.917753
    CHANNELS 3 Zrotation Yrotation Xrotation
    JOINT LeftLeg
    {
      OFFSET 0 0 -42.358652
      CHANNELS 3 Zrotation Yrotation Xrotation
      JOINT LeftFoot
      {
        OFFSET 0 0 -39.357303
        CHANNELS 3 Zrotation Yrotation Xrotation
      }
    }
  }
  JOINT RightThigh
  {
    OFFSET -8.409438 0 -5.917753
    CHANNELS 3 Zrotation Yrotation Xrotation
    JOINT RightLeg
    {
      OFFSET 0 0 -42.358652
      CHANNELS 3 Zrotation Yrotation Xrotation
      JOINT RightFoot
      {
        OFFSET 0 0 -39.357303
        CHANNELS 3 Zrotation Yrotation Xrotation
      }
    }
  }
  JOINT SpineLow
  {
    OFFSET 0 0 4.719101
    CHANNELS 3 Zrotation Yrotation Xrotation
    JOINT SpineMid
    {
      OFFSET 0 0 12.899191
      CHANNELS 3 Zrotation Yrotation Xrotation
      JOINT Chest
      {
        OFFSET 0 0 12.899191
        CHANNELS 3 Zrotation Yrotation Xrotation
        JOINT LeftShoulder
        {
          OFFSET 7.550562 1.41573 9.438202
          CHANNELS 3 Zrotation Yrotation Xrotation
          JOINT LeftArm
          {
            OFFSET 9.155056 0 4.247191
            CHANNELS 3 Zrotation Yrotation Xrotation
            JOINT LeftForearm
            {
              OFFSET 0 0 25.771955
              CHANNELS 3 Zrotation Yrotation Xrotation
              JOINT LeftHand
              {
                OFFSET 0 0 25.197169
                CHANNELS 3 Zrotation Yrotation Xrotation
              }
            }
          }
        }
        JOINT RightShoulder
        {
          OFFSET -7.550562 1.41573 9.438202
          CHANNELS 3 Zrotation Yrotation Xrotation
          JOINT RightArm
          {
            OFFSET -9.155056 0 4.247191
            CHANNELS 3 Zrotation Yrotation Xrotation
            JOINT RightForearm
            {
              OFFSET 0 0 -25.771955
              CHANNELS 3 Zrotation Yrotation Xrotation
              JOINT RightHand
              {
                OFFSET 0 0 -25.197169
                CHANNELS 3 Zrotation Yrotation Xrotation
              }
            }
          }
        }
        JOINT Neck
        {
          OFFSET 0 0 15.101124
          CHANNELS 3 Zrotation Yrotation Xrotation
          JOINT Head
          {
            OFFSET 0 0 11.325843
            CHANNELS 3 Zrotation Yrotation Xrotation
            End Site
            {
              OFFSET 0 0 14.157303
            }
          }
        }
      }
    }
  }
}
MOTION
Frames: 14
Frame Time: 0.0
0.0  101.685394  0.0  3.854015  -3.27571  -119.897483  21.85392  -25.565767  -73.108492  -5.641733  8.241602  29.478163  -14.684272  -17.733258  1.040732  -0.603613  -3.843863  -0.682739  10.575043  5.740649  33.788443  9.181265  2.904735  6.922252  -2.109855  1.498048  5.465766  -5.403198  4.542857  14.817542  -5.403198  4.542857  14.817542  -0.8392  29.56363  10.790437  -148.387562  59.653928  -104.008625  -40.615504  -34.402262  87.504704  72.929242  -16.236097  -13.259404  22.667958  -5.225922  28.003368  131.023748  48.154614  75.204013  -28.411295  18.652745  -105.75322  46.775764  2.629484  44.394717  0.046868  4.302357  1.281336  0.026099  3.226883  0.96022  
0.0  101.685394  0.0  2.793046  -4.162609  -119.849564  18.835739  -34.710567  -70.133178  -6.160845  8.405931  18.018014  -11.533276  -18.334931  1.548979  0.053497  -5.618745  -0.77068  10.287112  5.677934  34.043179  7.856842  3.438211  6.815071  -2.113622  1.315194  5.353978  -5.460575  4.038256  14.523164  -5.460575  4.038256  14.523164  0.252487  30.328553  12.12  -147.43423  59.426377  -102.705947  -41.006003  -34.410612  87.525994  72.636778  -16.237002  -13.505927  22.944799  -5.195385  29.09849  130.151958  48.867014  74.169904  -28.069427  17.947985  -105.957693  46.791817  2.777802  44.761731  0.672731  4.884684  2.169234  0.486874  3.665958  1.620553  
0.0  101.685394  0.0  2.021437  -5.431856  -120.109029  15.122649  -45.4618  -65.887008  4.189442  4.940956  9.391823  -14.014449  -16.616313  1.445687  -0.242857  -6.643077  -0.259015  10.691302  5.29141  34.047797  8.074215  3.404525  7.086431  -1.985364  1.157932  5.29911  -5.148381  3.579002  14.391069  -5.148381  3.579002  14.391069  0.999428  30.668597  13.171234  -147.549431  58.903457  -102.491916  -41.269368  -34.862758  87.456136  72.532219  -16.274447  -14.168958  22.574504  -5.240245  29.871085  129.327853  49.306098  72.966936  -27.583124  17.206185  -106.110895  46.799935  2.913185  45.159322  1.101005  5.371581  3.037607  0.798403  4.034286  2.26684  
0.0  101.685394  0.0  1.723015  -6.304497  -120.51922  11.747242  -54.577063  -63.476143  13.335387  3.740146  4.602538  -10.776381  -14.432847  1.600345  -2.185107  -6.316798  0.556231  11.768039  4.515525  33.986442  8.86822  3.317628  7.469023  -1.82562  1.110355  5.332488  -4.721951  3.417507  14.494182  -4.721951  3.417507  14.494182  1.021824  30.283069  13.37032  -148.912624  57.949661  -103.638081  -41.581596  -35.507829  87.669686  72.660744  -16.025528  -14.983778  21.52908  -5.30724  29.937139  128.573854  49.547945  71.549191  -27.055758  16.592275  -106.228831  46.834552  3.064709  45.427283  1.253688  5.600918  3.588392  0.906573  4.208233  2.677638  
0.0  101.685394  0.0  1.954958  -6.562237  -121.362572  -0.781981  -63.001928  -56.668884  30.147228  0.570884  5.45647  -12.441559  -14.369092  3.156768  -4.780619  -4.719455  1.437417  12.890684  3.558471  34.249327  9.990641  3.037932  7.839882  -1.688281  1.213273  5.494691  -4.316562  3.677334  14.940093  -4.316562  3.677335  14.940092  0.554264  29.209392  12.839372  -151.066611  56.628265  -105.684062  -42.058262  -35.881499  88.364604  72.78556  -15.492367  -15.757572  20.154902  -5.418918  29.299597  127.616156  49.711717  69.787574  -26.601837  16.257214  -106.376721  46.945098  3.103148  45.580553  1.199918  5.482856  3.761983  0.865447  4.119723  2.80855  
0.0  101.685394  0.0  2.73461  -6.489119  -122.390366  -10.010927  -64.049119  -50.877284  40.686106  -3.433248  7.083221  -15.29298  -14.971249  4.369468  -6.195851  -2.483179  1.710609  13.123758  2.665519  35.144949  11.297988  2.59448  8.041054  -1.567157  1.495566  5.680423  -3.911517  4.427272  15.44351  -3.911517  4.427272  15.44351  0.053063  27.46499  12.267788  -153.572549  56.054661  -107.343386  -43.320701  -36.353607  88.711639  72.660706  -14.988151  -16.146901  18.823334  -5.987902  28.180212  126.498245  49.392558  67.836744  -27.291602  16.237782  -105.758425  46.869434  3.354715  44.505296  1.125885  4.869071  3.706165  0.814349  3.658799  2.768971  
0.0  101.685394  0.0  3.697056  -6.008355  -123.675692  0.434209  -60.352861  -61.672216  40.235658  -4.261528  14.945155  -17.039725  -15.485538  2.995852  -6.96261  -0.259045  1.830693  12.779762  2.057438  36.477251  12.416952  2.313401  8.035644  -1.493048  1.775202  5.910607  -3.627118  5.181008  16.069425  -3.627118  5.181009  16.069425  -0.857878  26.189736  11.626843  -154.547699  54.721206  -108.621375  -44.137049  -35.8224  89.908766  72.295763  -14.657779  -15.897205  18.035573  -6.307896  27.06593  123.919316  49.376092  65.202604  -27.191702  16.477823  -106.191488  47.111305  3.331562  44.548065  0.920218  4.217323  3.351499  0.666711  3.168157  2.506134  
0.0  101.685394  0.0  4.160368  -5.045891  -123.813075  11.667435  -51.802516  -71.199618  34.22886  -3.965378  22.16168  -17.683028  -15.52978  0.998794  -7.65989  1.311783  1.03372  12.304616  1.261211  37.772092  12.660322  2.612555  7.887832  -1.576116  1.970732  5.955618  -3.802606  5.734067  16.179747  -3.802606  5.734066  16.179748  -1.662493  25.60768  11.179472  -154.617784  53.954907  -108.912892  -44.9823  -35.300144  90.996497  71.652085  -14.552417  -15.045067  17.929375  -6.333296  26.251292  119.995318  49.857418  62.194616  -26.79914  16.704668  -107.189758  47.351935  3.421622  44.63708  0.869675  3.568209  2.909189  0.635057  2.680373  2.176108  
0.0  101.685394  0.0  3.635398  -3.973806  -123.699736  20.323855  -42.065619  -77.325991  25.093132  -1.226905  28.506915  -16.532257  -15.004569  -0.124757  -8.568229  1.40482  0.9149  11.844536  1.114804  38.235805  12.524802  3.129574  7.811675  -1.784156  1.989841  5.901214  -4.369255  5.833024  16.011356  -4.369256  5.833024  16.011356  -2.095228  26.003748  11.314281  -153.906769  53.854384  -108.258778  -45.759331  -35.032405  91.8033  70.910016  -14.632056  -13.897793  18.341826  -6.072355  26.179498  116.290937  50.00805  58.9807  -26.620086  16.942817  -107.650309  47.525573  3.525133  44.743263  1.065874  3.165303  2.767156  0.784876  2.378868  2.069321  
0.0  101.685394  0.0  2.598779  -3.109607  -123.657631  27.096585  -32.262579  -81.200947  15.652882  3.581682  34.483723  -14.753333  -14.966716  -0.824838  -9.423745  0.285971  1.364457  11.5872  1.922663  38.148155  12.37905  3.48239  7.83527  -1.956256  1.827439  5.80261  -4.884375  5.426747  15.733257  -4.884375  5.426747  15.733257  -2.531559  27.339942  11.792272  -153.043075  54.330314  -107.162684  -46.255537  -35.12755  92.173623  70.270631  -14.712825  -12.909306  18.407324  -5.556227  26.836082  112.894948  50.108974  56.221414  -26.302448  17.033561  -108.027566  47.634405  3.603477  44.835039  1.195366  3.219806  2.984528  0.880574  2.420769  2.231513  
0.0  101.685394  0.0  1.436613  -2.580157  -123.801578  32.198762  -24.339439  -84.002315  7.016517  9.602417  40.152718  -11.406555  -14.920817  -1.024182  -10.300423  -1.289793  2.230359  11.895531  3.073528  37.893159  12.067843  3.691058  7.711563  -2.199447  1.647263  5.580657  -5.605555  4.977205  15.115783  -5.605555  4.977205  15.115783  -1.314933  29.139805  13.325788  -152.394267  55.20907  -105.943764  -46.623403  -35.634958  92.242095  69.695496  -14.59637  -12.288335  19.174217  -5.16612  28.636232  109.857272  50.276038  53.897705  -25.849536  17.088509  -108.249491  47.69778  3.693034  44.935575  1.919468  3.592803  3.815476  1.416738  2.706736  2.849405  
0.0  101.685394  0.0  0.486981  -2.292123  -123.863662  35.238021  -18.741818  -84.152317  1.088316  14.70754  43.939972  -8.561004  -15.125994  -0.754948  -11.292481  -2.683954  2.878809  12.71332  3.993974  37.884739  11.820093  3.964554  7.466127  -2.474317  1.420995  5.343483  -6.420725  4.403001  14.462297  -6.420726  4.403002  14.462297  0.58763  31.344178  14.854999  -152.393974  56.308545  -105.21441  -47.14932  -36.421405  92.287748  69.256434  -14.277118  -11.988044  20.182505  -4.450228  30.595141  107.172748  50.378756  51.980105  -25.335712  17.202722  -108.296663  47.768955  3.838406  45.050812  2.899209  4.323295  4.633571  2.140686  3.264747  3.453077  
0.0  101.685394  0.0  -0.02313  -2.442517  -123.798032  36.844612  -16.244845  -83.737198  -0.070919  16.559417  48.716132  -8.915905  -15.084026  -0.91978  -11.319497  -3.96753  2.821378  13.347242  4.438979  38.378069  11.419803  4.305833  7.281936  -2.700436  1.243611  5.195644  -7.083328  3.95491  14.057741  -7.083327  3.954909  14.057742  2.463542  33.152838  15.698843  -152.905208  57.205273  -105.040012  -47.767043  -37.367231  92.287631  68.907578  -13.952006  -11.812333  21.307595  -3.660904  31.943153  105.001424  50.478729  50.47259  -24.904981  17.446708  -108.144959  47.859858  3.972123  45.170269  4.031836  5.057551  4.992342  2.980738  3.826568  3.708573  
0.0  101.685394  0.0  -0.078782  -3.082486  -124.010995  37.810077  -15.271969  -83.650842  0.867215  16.184828  55.025091  -10.590805  -14.815749  -1.586724  -10.009973  -4.952399  2.726376  13.334741  4.520193  38.976501  10.899272  4.55521  7.176513  -2.788577  1.097092  5.357392  -7.343482  3.592995  14.507928  -7.343481  3.592995  14.507929  2.835849  34.482976  14.451502  -153.59142  57.623607  -105.306496  -48.160061  -38.196206  92.04952  68.634755  -13.751675  -11.576234  22.084587  -2.471464  31.552992  103.392496  50.427751  49.351398  -24.73823  17.802974  -107.753312  47.959882  4.032055  45.214643  4.921291  5.822053  4.401078  3.645957  4.402544  3.251188  
